# Blender v2.79 (sub 0) OBJ File: 'city.blend'
# www.blender.org
mtllib city.mtl
o Grid_Grid.002
v -5.981876 0.000000 5.981876
v -4.652571 0.000000 5.981876
v -3.323265 0.000000 5.981876
v -1.993959 0.000000 5.981876
v -0.664653 0.000000 5.981876
v 0.664653 0.000000 5.981876
v 1.993959 0.000000 5.981876
v 3.323265 0.000000 5.981876
v 4.652571 0.000000 5.981876
v 5.981876 0.000000 5.981876
v -5.981876 0.000000 4.652571
v -4.652571 0.000000 4.652571
v -3.323265 0.000000 4.652571
v -1.993959 0.000000 4.652571
v -0.664653 0.000000 4.652571
v 0.664653 0.000000 4.652571
v 0.920724 2.983220 5.725806
v 4.396500 2.983220 5.725806
v 4.652571 0.000000 4.652571
v 5.981876 0.000000 4.652571
v -5.981876 0.000000 3.323265
v -4.652571 0.000000 3.323265
v -3.323265 0.000000 3.323265
v -1.993959 0.000000 3.323265
v -0.664653 0.000000 3.323265
v 0.664653 0.000000 3.323265
v 0.920724 2.983220 2.250029
v 4.396500 2.983220 2.250029
v 4.652571 0.000000 3.323265
v 5.981876 0.000000 3.323265
v -5.981876 0.000000 1.993959
v -4.652571 0.000000 1.993959
v -3.323265 0.000000 1.993959
v -1.993959 0.000000 1.993959
v -0.664653 0.000000 1.993959
v 0.664653 0.000000 1.993959
v 1.993959 0.000000 1.993959
v 3.323265 0.000000 1.993959
v 4.652571 0.000000 1.993959
v 5.981876 0.000000 1.993959
v -5.981876 0.000000 0.664653
v -4.652571 0.000000 0.664653
v -3.323265 0.000000 0.664653
v -1.993959 0.000000 0.664653
v -0.664653 0.000000 0.664653
v 0.664653 0.000000 0.664653
v 1.993959 0.000000 0.664653
v 3.323265 0.000000 0.664653
v 4.652571 0.000000 0.664653
v 5.981876 0.000000 0.664653
v -5.981876 0.000000 -0.664653
v -4.652571 0.000000 -0.664653
v -3.323265 0.000000 -0.664653
v -1.993959 0.000000 -0.664653
v -0.664653 0.000000 -0.664653
v 0.664653 0.000000 -0.664653
v 1.993959 0.000000 -0.664653
v 3.323265 0.000000 -0.664653
v 4.652571 0.000000 -0.664653
v 5.981876 0.000000 -0.664653
v -5.981876 0.000000 -1.993959
v -4.652571 0.000000 -1.993959
v -3.323265 0.000000 -1.993959
v -1.993959 0.000000 -1.993959
v -0.664653 0.000000 -1.993959
v 0.664653 0.000000 -1.993959
v 1.993959 0.000000 -1.993959
v 3.323265 0.000000 -1.993959
v 4.652571 0.000000 -1.993959
v 5.981876 0.000000 -1.993959
v -5.981876 0.000000 -3.323265
v -4.652571 0.000000 -3.323265
v -3.323265 0.000000 -3.323265
v -1.993959 0.000000 -3.323265
v -0.664653 0.000000 -3.323265
v 0.664653 0.000000 -3.323265
v 1.993959 0.000000 -3.323265
v 3.323265 0.000000 -3.323265
v 4.652571 0.000000 -3.323265
v 5.981876 0.000000 -3.323265
v -5.981876 0.000000 -4.652571
v -4.652571 0.000000 -4.652571
v -3.323265 0.000000 -4.652571
v -1.993959 0.000000 -4.652571
v -0.664653 0.000000 -4.652571
v 0.664653 0.000000 -4.652571
v 1.993959 0.000000 -4.652571
v 3.323265 0.000000 -4.652571
v 4.652571 0.000000 -4.652571
v 5.981876 0.000000 -4.652571
v -5.981876 0.000000 -5.981876
v -4.652571 0.000000 -5.981876
v -3.323265 0.000000 -5.981876
v -1.993959 0.000000 -5.981876
v -0.664653 0.000000 -5.981876
v 0.664653 0.000000 -5.981876
v 1.993959 0.000000 -5.981876
v 3.323265 0.000000 -5.981876
v 4.652571 0.000000 -5.981876
v 5.981876 0.000000 -5.981876
v 4.396500 4.060544 5.725806
v 0.920724 4.060544 5.725806
v 0.920724 4.060544 2.250029
v 4.396500 4.060544 2.250029
v 3.995678 10.517926 5.324984
v 1.321546 10.517926 5.324984
v 1.321546 10.517926 2.650852
v 3.995678 10.517926 2.650852
v 3.209489 13.428040 4.538795
v 2.107734 13.428040 4.538795
v 2.107734 13.428040 3.437040
v 3.209489 13.428040 3.437040
v 2.846266 13.658663 4.175572
v 2.470958 13.658663 4.175572
v 2.470958 13.658663 3.800263
v 2.846266 13.658663 3.800263
v 2.846266 18.711082 4.175572
v 2.470958 18.711082 4.175572
v 2.470958 18.711082 3.800263
v 2.846266 18.711082 3.800263
v 2.900645 18.979040 4.229950
v 2.416579 18.979040 4.229950
v 2.416579 18.979040 3.745885
v 2.900645 18.979040 3.745885
v 2.825749 19.334234 4.155055
v 2.491474 19.334234 4.155055
v 2.491474 19.334234 3.820780
v 2.825749 19.334234 3.820780
v -1.993959 2.319439 -3.323265
v -3.323265 2.319439 -3.323265
v -0.664653 2.319439 -3.323265
v 0.664653 2.319439 -3.323265
v 1.993959 2.319439 -3.323265
v -3.323265 2.319439 -4.652571
v -1.993959 2.319439 -4.652571
v -0.664653 2.319439 -4.652571
v 0.664653 2.319439 -4.652571
v 1.993959 2.319439 -4.652571
v -3.323265 1.728133 3.323265
v -4.652571 1.728133 3.323265
v -4.652571 1.728133 1.993959
v -3.323265 1.728133 1.993959
v -4.652571 1.728133 0.664653
v -3.323265 1.728133 0.664653
v 4.652571 1.310965 0.664653
v 3.323265 1.310965 0.664653
v 3.323265 1.310965 -0.664653
v 4.652571 1.310965 -0.664653
v -1.993959 3.003590 -3.828219
v -3.323265 3.003590 -3.828219
v -0.664653 3.003590 -3.828219
v 0.664653 3.003590 -3.828219
v 1.993959 3.003590 -3.828219
v -3.323265 3.003590 -4.147616
v -1.993959 3.003590 -4.147616
v -0.664653 3.003590 -4.147616
v 0.664653 3.003590 -4.147616
v 1.993959 3.003590 -4.147616
v -3.844030 2.478778 3.323265
v -4.131805 2.478778 3.323265
v -4.131805 2.478778 1.993959
v -3.844030 2.478778 1.993959
v -4.131805 2.478778 0.664653
v -3.844030 2.478778 0.664653
v 4.159447 1.787012 0.171530
v 3.816388 1.787012 0.171530
v 3.816388 1.787012 -0.171530
v 4.159447 1.787012 -0.171530
vn 0.0000 1.0000 0.0000
vn -0.7020 0.1205 0.7020
vn 0.0000 0.0855 0.9963
vn 0.7020 0.1205 0.7020
vn -0.9963 0.0855 0.0000
vn 0.0000 0.0000 -1.0000
vn 0.9963 0.0855 0.0000
vn -1.0000 0.0000 0.0000
vn -0.7020 0.1205 -0.7020
vn 0.0000 0.0855 -0.9963
vn 0.7020 0.1205 -0.7020
vn 0.0000 0.0000 1.0000
vn 0.0000 0.0620 0.9981
vn 1.0000 0.0000 0.0000
vn 0.0000 0.2608 -0.9654
vn 0.0000 0.0620 -0.9981
vn -0.9981 0.0620 0.0000
vn 0.9981 0.0620 0.0000
vn 0.5360 0.8442 0.0000
vn -0.9654 0.2608 0.0000
vn 0.9654 0.2608 0.0000
vn 0.0000 0.2608 0.9654
vn 0.0000 0.8442 0.5360
vn 0.0000 0.8442 -0.5360
vn -0.5360 0.8442 0.0000
vn -0.9800 -0.1989 0.0000
vn 0.9785 0.2063 0.0000
vn 0.9800 -0.1989 0.0000
vn 0.0000 -0.1989 0.9800
vn 0.0000 -0.1989 -0.9800
vn 0.0000 0.2063 0.9785
vn 0.0000 0.2063 -0.9785
vn -0.9785 0.2063 0.0000
vn 0.0000 0.5938 -0.8046
vn 0.0000 0.5938 0.8046
vn -0.8216 0.5700 0.0000
vn 0.0000 0.7195 -0.6945
vn 0.8216 0.5700 0.0000
vn -0.6945 0.7195 0.0000
vn 0.6945 0.7195 0.0000
vn 0.0000 0.7195 0.6945
usemtl None
s off
f 1//1 2//1 12//1 11//1
f 2//1 3//1 13//1 12//1
f 3//1 4//1 14//1 13//1
f 4//1 5//1 15//1 14//1
f 5//1 6//1 16//1 15//1
f 6//2 7//2 17//2 16//2
f 7//3 8//3 18//3 17//3
f 8//4 9//4 19//4 18//4
f 9//1 10//1 20//1 19//1
f 11//1 12//1 22//1 21//1
f 12//1 13//1 23//1 22//1
f 13//1 14//1 24//1 23//1
f 14//1 15//1 25//1 24//1
f 15//1 16//1 26//1 25//1
f 16//5 17//5 27//5 26//5
f 28//6 27//6 103//6 104//6
f 18//7 19//7 29//7 28//7
f 19//1 20//1 30//1 29//1
f 21//1 22//1 32//1 31//1
f 32//8 22//8 140//8 141//8
f 23//1 24//1 34//1 33//1
f 24//1 25//1 35//1 34//1
f 25//1 26//1 36//1 35//1
f 26//9 27//9 37//9 36//9
f 27//10 28//10 38//10 37//10
f 28//11 29//11 39//11 38//11
f 29//1 30//1 40//1 39//1
f 31//1 32//1 42//1 41//1
f 43//6 42//6 143//6 144//6
f 33//1 34//1 44//1 43//1
f 34//1 35//1 45//1 44//1
f 35//1 36//1 46//1 45//1
f 36//1 37//1 47//1 46//1
f 37//1 38//1 48//1 47//1
f 38//1 39//1 49//1 48//1
f 39//1 40//1 50//1 49//1
f 41//1 42//1 52//1 51//1
f 42//1 43//1 53//1 52//1
f 43//1 44//1 54//1 53//1
f 44//1 45//1 55//1 54//1
f 45//1 46//1 56//1 55//1
f 46//1 47//1 57//1 56//1
f 47//1 48//1 58//1 57//1
f 59//6 58//6 147//6 148//6
f 49//1 50//1 60//1 59//1
f 51//1 52//1 62//1 61//1
f 52//1 53//1 63//1 62//1
f 53//1 54//1 64//1 63//1
f 54//1 55//1 65//1 64//1
f 55//1 56//1 66//1 65//1
f 56//1 57//1 67//1 66//1
f 57//1 58//1 68//1 67//1
f 58//1 59//1 69//1 68//1
f 59//1 60//1 70//1 69//1
f 61//1 62//1 72//1 71//1
f 62//1 63//1 73//1 72//1
f 63//1 64//1 74//1 73//1
f 64//1 65//1 75//1 74//1
f 65//1 66//1 76//1 75//1
f 66//1 67//1 77//1 76//1
f 67//1 68//1 78//1 77//1
f 68//1 69//1 79//1 78//1
f 69//1 70//1 80//1 79//1
f 71//1 72//1 82//1 81//1
f 72//1 73//1 83//1 82//1
f 73//12 74//12 129//12 130//12
f 86//6 85//6 136//6 137//6
f 76//12 77//12 133//12 132//12
f 83//8 73//8 130//8 134//8
f 77//1 78//1 88//1 87//1
f 78//1 79//1 89//1 88//1
f 79//1 80//1 90//1 89//1
f 81//1 82//1 92//1 91//1
f 82//1 83//1 93//1 92//1
f 83//1 84//1 94//1 93//1
f 84//1 85//1 95//1 94//1
f 85//1 86//1 96//1 95//1
f 86//1 87//1 97//1 96//1
f 87//1 88//1 98//1 97//1
f 88//1 89//1 99//1 98//1
f 89//1 90//1 100//1 99//1
f 102//13 101//13 105//13 106//13
f 17//12 18//12 101//12 102//12
f 18//14 28//14 104//14 101//14
f 27//8 17//8 102//8 103//8
f 108//15 107//15 111//15 112//15
f 104//16 103//16 107//16 108//16
f 103//17 102//17 106//17 107//17
f 101//18 104//18 108//18 105//18
f 109//19 112//19 116//19 113//19
f 107//20 106//20 110//20 111//20
f 105//21 108//21 112//21 109//21
f 106//22 105//22 109//22 110//22
f 116//6 115//6 119//6 120//6
f 110//23 109//23 113//23 114//23
f 112//24 111//24 115//24 116//24
f 111//25 110//25 114//25 115//25
f 119//26 118//26 122//26 123//26
f 115//8 114//8 118//8 119//8
f 113//14 116//14 120//14 117//14
f 114//12 113//12 117//12 118//12
f 121//27 124//27 128//27 125//27
f 117//28 120//28 124//28 121//28
f 118//29 117//29 121//29 122//29
f 120//30 119//30 123//30 124//30
f 126//1 125//1 128//1 127//1
f 122//31 121//31 125//31 126//31
f 124//32 123//32 127//32 128//32
f 123//33 122//33 126//33 127//33
f 138//34 137//34 157//34 158//34
f 136//34 135//34 155//34 156//34
f 129//35 131//35 151//35 149//35
f 133//14 138//14 158//14 153//14
f 77//14 87//14 138//14 133//14
f 75//12 76//12 132//12 131//12
f 85//6 84//6 135//6 136//6
f 87//6 86//6 137//6 138//6
f 74//12 75//12 131//12 129//12
f 84//6 83//6 134//6 135//6
f 143//36 141//36 161//36 163//36
f 144//6 143//6 163//6 164//6
f 33//14 43//14 144//14 142//14
f 42//8 32//8 141//8 143//8
f 22//12 23//12 139//12 140//12
f 23//14 33//14 142//14 139//14
f 148//37 147//37 167//37 168//37
f 48//12 49//12 145//12 146//12
f 49//14 59//14 148//14 145//14
f 58//8 48//8 146//8 147//8
f 150//1 149//1 155//1 154//1
f 149//1 151//1 156//1 155//1
f 151//1 152//1 157//1 156//1
f 152//1 153//1 158//1 157//1
f 131//35 132//35 152//35 151//35
f 135//34 134//34 154//34 155//34
f 132//35 133//35 153//35 152//35
f 137//34 136//34 156//34 157//34
f 130//35 129//35 149//35 150//35
f 134//8 130//8 150//8 154//8
f 160//1 159//1 162//1 161//1
f 161//1 162//1 164//1 163//1
f 139//38 142//38 162//38 159//38
f 140//12 139//12 159//12 160//12
f 142//38 144//38 164//38 162//38
f 141//36 140//36 160//36 161//36
f 166//1 165//1 168//1 167//1
f 147//39 146//39 166//39 167//39
f 145//40 148//40 168//40 165//40
f 146//41 145//41 165//41 166//41
